<svg viewBox="315.99 -45.259 159.548 171.901"
  xmlns="http://www.w3.org/2000/svg">
  <path d="M155.218 116.375C160.732 127.14 161.283 138.341 163.84 153.849C166.405 169.258 170.786 188.855 163.354 199.505C155.912 210.254 136.559 212.046 116.89 210.795C97.3291 209.454 77.4528 205.07 69.9509 193.013C62.4585 180.856 67.3405 161.027 74.2857 147.016C81.1312 132.997 90.1489 124.706 99.668 115.358C109.187 106.01 119.307 95.6138 129.466 95.4663C139.615 95.4184 149.803 105.619 155.218 116.375Z" fill="#2F343C" transform="matrix(1, 0, 0, 1, 249.801208, -84.498924)" />
  <path d="M208.504 119.46C200.273 135.671 194.506 156.302 180.073 165.545C165.62 174.69 142.519 172.545 128.071 160.724C113.506 148.823 107.692 127.228 105.768 106.83C103.961 86.5119 106.045 67.3918 115.94 55.1396C125.953 42.9671 143.679 37.6811 158.094 39.6367C172.508 41.5923 183.61 50.7894 196.394 58.6509C209.196 66.6107 223.679 73.2348 225.505 82.3542C227.449 91.5534 216.735 103.248 208.504 119.46Z" fill="#B3192B" transform="matrix(1, 0, 0, 1, 249.801208, -84.498924)" />
  <path d="M110.013 139.329C126.463 143.463 145.475 160.889 138.531 165.468C131.586 170.047 98.6839 161.779 89.1779 153.066C79.6719 144.353 93.5617 135.195 110.013 139.329Z" fill="#BDA453" transform="matrix(1, 0, 0, 1, 249.801208, -84.498924)" />
</svg>
