<svg width="271" height="273" viewBox="0 0 271 273" fill="none" xmlns="http://www.w3.org/2000/svg">
<path d="M108.404 214.672C89.1879 215.855 69.4603 224.19 55.9934 218.413C42.5984 212.706 35.5335 192.815 34.2512 171.974C32.8971 151.064 37.2511 128.994 50.2916 114.34C63.332 99.6856 85.1978 92.3034 106.973 91.9243C128.821 91.6146 150.861 98.303 166.738 112.524C182.613 126.604 192.468 148.356 191.121 168.465C189.702 188.504 177.013 207.112 161.493 213.394C145.973 219.675 127.55 213.56 108.404 214.672Z" fill="#2B549C"/>
<path d="M232.106 111.377C232.062 124.354 218.499 137.124 203.873 141.606C189.247 146.087 173.517 142.414 157.456 138.126C141.394 133.837 125 128.933 123.096 119.506C121.24 110.168 133.956 96.0369 140.902 83.4273C147.848 70.8178 149.018 59.5062 156.265 50.8246C163.6 42.0956 177.053 35.8611 186.125 39.8298C195.285 43.7511 200.111 57.9636 209.305 71.6378C218.5 85.3119 232.062 98.4477 232.106 111.377Z" fill="#B3192B"/>
<path d="M144.788 136.047C158.529 145.992 169.714 169.23 161.566 170.904C153.417 172.578 125.935 152.688 120.342 141.069C114.75 129.45 131.047 126.102 144.788 136.047Z" fill="#FAFAFA"/>
</svg>
