<svg width="443" height="333" viewBox="0 0 443 333" fill="none" xmlns="http://www.w3.org/2000/svg">
<path d="M355.014 68.7083C374.278 83.5201 389.52 102.141 405.397 124.358C421.274 146.364 437.786 171.968 442.02 200.957C446.042 229.945 437.574 262.531 418.733 288.346C400.105 314.161 370.891 333.416 341.678 332.993C312.676 332.57 283.462 312.468 253.19 301.254C222.918 290.039 191.8 287.5 168.302 272.053C144.592 256.395 128.716 227.618 122.153 196.301C115.591 164.985 118.343 130.918 139.3 113.567C160.046 96.0044 199.209 95.158 227.152 84.5781C255.096 73.7867 272.243 53.2617 292.353 48.1834C312.464 43.3167 335.75 54.1081 355.014 68.7083Z" fill="#CDD7D9"/>
<path d="M202.962 11.3186C231.573 23.8124 256.582 49.647 261.245 78.6581C265.696 107.881 249.8 139.857 231.15 162.938C212.287 186.02 190.669 199.784 169.899 204.655C149.129 209.737 129.206 205.502 112.039 201.902C94.8722 198.09 80.4603 194.702 65.8365 187.714C51.0007 180.938 36.3768 170.562 23.8724 154.256C11.3679 137.739 1.40675 115.504 0.13511 89.0343C-1.13653 62.5644 6.4933 31.6475 26.2037 16.1891C45.9141 0.942396 77.7051 0.730636 109.708 0.307117C141.711 -0.328161 174.138 -1.1752 202.962 11.3186Z" fill="#2B549C"/>
<path d="M393.583 92.7414C365.838 115.615 312.19 126.141 313.111 108.53C314.031 90.9201 369.521 45.1734 396.345 39.9104C423.169 34.6474 421.328 69.868 393.583 92.7414Z" fill="#B3192B"/>
</svg>
