<?xml version="1.0" encoding="UTF-8"?>
<svg viewBox="0 0 750 573.07178" xmlns="http://www.w3.org/2000/svg">
 <g transform="translate(265.71 313.77)">
  <path d="m316.5-313.77c-1.1173 0.0171-2.2355 0.10162-3.3558 0.18634-20.979 1.594-40.875 11.101-59.662 20.571-10.801 5.4444-20.474 13.744-27.718 23.43-13.4 17.92-15.438 44.852-33.373 58.233-29.18 21.769-67.087 28.373-100.87 41.95-32.048 12.882-56.454 24.104-101.55 36.232-30.318 8.1538-58.706 22.246-88.064 33.373 17.52-2.3672 34.995-4.7793 52.515-7.1469-14.679 6.629-29.296 13.317-44.001 19.887-18.678 8.3451-37.126 17.262-56.12 24.859-15.364 6.1456-31.131 11.203-46.859 16.345-8.9024 2.9103-18.535 2.2431-27.531 4.8477 9.7068-0.94703 19.938 1.0715 29.644 0.1241-5.9189 2.8411-11.855 5.6732-17.774 8.5144l17.774 4.2882c-13.968 4.4983-28.033 8.6499-41.888 13.486-11.25 3.9268-22.246 8.5409-33.373 12.802l23.43 5.6554c-3.7881 5.9188-11.178 10.75-11.373 17.774-0.12251 4.4022 6.2374 7.4794 10.627 7.8306 14.209 1.1367 28.647-0.791 42.633-3.5424 29.467-5.7967 57.721-17.344 87.38-22.062 12.412-1.9746 25.206 0.08643 37.6 2.1752 8.859 1.4931 16.919 6.2172 25.605 8.5142 19.986 5.2857 40.221 9.4346 60.345 14.17l-12.057 8.5142c3.3146 0.71025 6.629 1.4649 9.9436 2.1752-5.682 2.1308-11.346 4.2704-17.029 6.4012l29.085 2.113-15.599 7.0848c8.5227 1.1838 16.955 3.0057 25.543 3.5424 17.964 1.1228 36.013 0.95588 54.007 1.4294-3.3148 12.548-12.281 31.355-6.9606 43.193 5.0784 11.302 4.7139 15.455 9.8192 22.87 1.6682 2.4222 4.9376 3.8818 8.2658 4.1639l16.345 29.645 13.548 28.588c-18.908-2.9151-23.256-6.055-38.656 3.0452l14.605-0.49718c3.821 9.4322 17.914 3.8938 26.102 9.0114 0 0 9.3516 3.6299 12.057 7.5199 6.1883 21.777 20.339 19.676 27.594 40.707 5.3274 5.0582 10.102 4.7011 17.091 5.034l4.5369 6.0283-4.5369-12.554-11.559-19.577c8.9521-0.51729 14.785-0.36656 25.045 3.1695 8.0874 2.787 20.274 8.8182 29.707 10.379l5.5311 7.5199-3.0452-12.057-21.068-13.548s-14.065-3.5424-12.056-3.5424c7.1873-0.36262 12.512-3.0631 20.571-2.7345 9.6648 0.39411 21.938 3.634 28.153-0.24859l6.5254 1.4916s-12.179-5.9657-17.588-7.5199c-10.945-3.1453-13.558-1.4865-31.136-1.9887s-23.649 5.4743-34.119 0.99436c-24.698-20.831-46.407-56.321-60.035-87.069 0.02685-0.03779 0.036-0.08639 0.06225-0.1243 6.8645-1.1777 13.826-1.5057 20.757-2.2373 3.3462-0.35322 6.7036-1.0497 10.068-0.99437 15.198 0.24989 29.995 6.6826 45.181 6.0283 3.0841-0.13286 5.992-1.8052 9.0738-1.9887 3.3588-0.20008 10.006 0.99437 10.006 0.99437s-10.694-5.8615-16.531-7.5199c-7.6302-2.1677-20.078 4.0541-23.616-3.0452-0.60199-1.208 0.85575-2.7469 1.9887-3.4803 5.7894-3.7474 13.675-1.9451 20.571-2.0509 5.0331-0.07722 10.177-0.04339 15.102 0.99436 1.9173 0.40402 5.5317 2.0509 5.5311 2.0509s-6.3818-8.3744-11.062-10.068c-10.873-3.934-24.425 6.8338-34.679 1.4916-1.9356-1.0085-3.9307-3.3333-3.4803-5.469 0.99775-4.7247 7.5842-6.2582 12.057-8.0792 2.5237-1.0277 8.017-1.4916 8.017-1.4916s-5.4436-3.7488-8.5142-3.5424c-7.3342 0.49281-11.81 9.9711-19.079 11.062-2.2089 0.33156-4.759-0.20902-6.5877-1.4916-5.5506-3.8929-7.8422-11.091-11-17.091-1.696-3.2226-3.6018-7.6362-5.469-12.119 4.868-3.0802 10.607-5.2291 15.102-8.825 8.7673-7.0139 14.682-18.003 24.859-22.746 14.991-6.986 33.093-4.783 48.289-11.311 18.841-8.0933 35.994-19.946 52.577-32.006 14.788-10.755 31.928-20.474 41.204-36.232 11.218-19.058 11.209-42.751 17.712-63.888 5.8125-18.892 14.448-36.934 19.204-56.119 2.1675-8.745-1.9583-18.624 1.4295-26.972 3.6014-8.8755 10.663-16.495 18.458-22.062 9.2333-6.5952 20.043-11.777 31.26-13.486 25.061-3.817 50.657-3.0042 76.007-2.7966 3.7432 0.03063 7.0763 2.3588 10.627 3.5423-3.8744-31.741-69.604-46.177-105.84-62.521-4.9048-2.2568-7.6242-8.2198-12.74-9.9436-15.97-5.3819-32.455-12.498-49.221-12.243zm34.244 46.3c5.0828 0 9.1979 4.1145 9.1979 9.1979s-4.1151 9.2599-9.1979 9.2599-9.2599-4.1775-9.2599-9.2599 4.1771-9.1979 9.2599-9.1979zm0 2.3614c-3.7931 0-6.8363 3.043-6.8363 6.8365s3.0432 6.8361 6.8363 6.8361 6.8363-3.0432 6.8363-6.8361-3.0432-6.8365-6.8363-6.8365zm1.243 2.2996c1.3869 0 2.4859 1.1612 2.4859 2.5482s-1.099 2.4859-2.4859 2.4859-2.4859-1.0992-2.4859-2.4859 1.099-2.5482 2.4859-2.5482zm-232.49 334.98c2.9787 7.1312 6.3464 15.69 7.5198 22.373 0.7237 4.1222 2.3342 9.08 0 12.554-2.7421 4.0808-7.8913 5.0562-13.113 6.0283 0.66125-1.6082 1.262-3.2568 1.8024-4.8475 1.8288-5.385-1.5643-11.401-0.74577-17.029 0.93152-6.4044 1.553-13.401 4.5369-19.079z"/>
 </g>
</svg>
